# MagicaVoxel @ Ephtracy

# group
o 

# material
mtllib rock.mtl
usemtl palette

# normals
vn -1 0 0
vn 1 0 0
vn 0 0 1
vn 0 0 -1
vn 0 -1 0
vn 0 1 0

# texcoords
vt 0.205078 0.5
vt 0.373047 0.5
vt 0.537109 0.5

# verts
v -0.9 1.5 -1.5
v -0.9 1.5 -1.6
v -0.9 1.5 -1.9
v -0.9 1.6 -1.5
v -0.9 1.6 -1.6
v -0.9 1.6 -1.9
v -0.8 1.5 -1.4
v -0.8 1.5 -1.5
v -0.8 1.6 -1.5
v -0.8 1.6 -1.6
v -0.8 1.6 -1.7
v -0.8 1.6 -1.8
v -0.8 1.7 -1.4
v -0.8 1.7 -1.7
v -0.8 1.7 -1.8
v -0.7 1.5 -1.3
v -0.7 1.5 -1.4
v -0.7 1.5 -1.9
v -0.7 1.5 -2.1
v -0.7 1.6 -1.3
v -0.7 1.6 -1.4
v -0.7 1.6 -1.8
v -0.7 1.6 -1.9
v -0.7 1.6 -2
v -0.7 1.6 -2.1
v -0.7 1.7 -1.5
v -0.7 1.7 -1.7
v -0.7 1.7 -1.8
v -0.7 1.7 -2
v -0.7 1.8 -1.5
v -0.7 1.8 -1.8
v -0.6 1.6 -1.9
v -0.6 1.6 -2
v -0.6 1.7 -1.5
v -0.6 1.7 -1.6
v -0.6 1.7 -1.9
v -0.6 1.7 -2
v -0.6 1.8 -1.5
v -0.6 1.8 -1.6
v -0.5 1.5 -2
v -0.5 1.5 -2.1
v -0.5 1.6 -1.4
v -0.5 1.6 -1.6
v -0.5 1.6 -2
v -0.5 1.6 -2.1
v -0.5 1.7 -1.4
v -0.5 1.7 -1.6
v -0.5 1.7 -1.7
v -0.5 1.7 -1.8
v -0.5 1.8 -1.6
v -0.5 1.8 -1.8
v -0.4 1.5 -1.3
v -0.4 1.5 -1.6
v -0.4 1.5 -1.9
v -0.4 1.5 -2
v -0.4 1.6 -1.3
v -0.4 1.6 -1.6
v -0.4 1.6 -1.7
v -0.4 1.6 -1.9
v -0.4 1.6 -2
v -0.4 1.7 -1.6
v -0.4 1.7 -1.7
v -0.4 1.7 -1.9
v -0.3 1.5 -1.6
v -0.3 1.5 -1.7
v -0.3 1.5 -1.9
v -0.3 1.6 -1.6
v -0.3 1.6 -1.7
v -0.3 1.6 -1.9
v -0.7 1.5 -1.3
v -0.7 1.6 -1.3
v -0.6 1.5 -1.3
v -0.6 1.6 -1.3
v -0.4 1.5 -1.3
v -0.4 1.6 -1.3
v -0.8 1.5 -1.4
v -0.8 1.7 -1.4
v -0.7 1.5 -1.4
v -0.7 1.6 -1.4
v -0.7 1.7 -1.4
v -0.6 1.6 -1.4
v -0.5 1.6 -1.4
v -0.5 1.7 -1.4
v -0.9 1.5 -1.5
v -0.9 1.6 -1.5
v -0.8 1.5 -1.5
v -0.8 1.6 -1.5
v -0.7 1.7 -1.5
v -0.7 1.8 -1.5
v -0.6 1.7 -1.5
v -0.6 1.8 -1.5
v -0.6 1.7 -1.6
v -0.6 1.8 -1.6
v -0.5 1.6 -1.6
v -0.5 1.7 -1.6
v -0.5 1.8 -1.6
v -0.4 1.5 -1.6
v -0.4 1.6 -1.6
v -0.4 1.7 -1.6
v -0.3 1.5 -1.6
v -0.3 1.6 -1.6
v -0.8 1.6 -1.8
v -0.8 1.7 -1.8
v -0.7 1.6 -1.8
v -0.7 1.7 -1.8
v -0.7 1.8 -1.8
v -0.5 1.7 -1.8
v -0.5 1.8 -1.8
v -0.9 1.5 -1.9
v -0.9 1.6 -1.9
v -0.7 1.5 -1.9
v -0.7 1.6 -1.9
v -0.6 1.6 -1.9
v -0.6 1.7 -1.9
v -0.5 1.6 -1.9
v -0.5 1.7 -1.9
v -0.4 1.5 -1.9
v -0.4 1.6 -1.9
v -0.4 1.7 -1.9
v -0.3 1.5 -1.9
v -0.3 1.6 -1.9
v -0.7 1.6 -2
v -0.7 1.7 -2
v -0.6 1.6 -2
v -0.6 1.7 -2
v -0.5 1.5 -2
v -0.5 1.6 -2
v -0.4 1.5 -2
v -0.4 1.6 -2
v -0.7 1.5 -2.1
v -0.7 1.6 -2.1
v -0.5 1.5 -2.1
v -0.5 1.6 -2.1
v -0.7 1.5 -1.3
v -0.6 1.5 -1.3
v -0.4 1.5 -1.3
v -0.8 1.5 -1.4
v -0.7 1.5 -1.4
v -0.6 1.5 -1.4
v -0.5 1.5 -1.4
v -0.9 1.5 -1.5
v -0.8 1.5 -1.5
v -0.9 1.5 -1.6
v -0.8 1.5 -1.6
v -0.5 1.5 -1.6
v -0.4 1.5 -1.6
v -0.3 1.5 -1.6
v -0.4 1.5 -1.7
v -0.3 1.5 -1.7
v -0.8 1.5 -1.8
v -0.7 1.5 -1.8
v -0.9 1.5 -1.9
v -0.7 1.5 -1.9
v -0.4 1.5 -1.9
v -0.3 1.5 -1.9
v -0.5 1.5 -2
v -0.4 1.5 -2
v -0.7 1.5 -2.1
v -0.5 1.5 -2.1
v -0.7 1.6 -1.3
v -0.6 1.6 -1.3
v -0.4 1.6 -1.3
v -0.7 1.6 -1.4
v -0.6 1.6 -1.4
v -0.5 1.6 -1.4
v -0.9 1.6 -1.5
v -0.8 1.6 -1.5
v -0.9 1.6 -1.6
v -0.8 1.6 -1.6
v -0.5 1.6 -1.6
v -0.4 1.6 -1.6
v -0.3 1.6 -1.6
v -0.8 1.6 -1.7
v -0.4 1.6 -1.7
v -0.3 1.6 -1.7
v -0.8 1.6 -1.8
v -0.7 1.6 -1.8
v -0.9 1.6 -1.9
v -0.7 1.6 -1.9
v -0.6 1.6 -1.9
v -0.5 1.6 -1.9
v -0.4 1.6 -1.9
v -0.3 1.6 -1.9
v -0.7 1.6 -2
v -0.6 1.6 -2
v -0.5 1.6 -2
v -0.4 1.6 -2
v -0.7 1.6 -2.1
v -0.5 1.6 -2.1
v -0.8 1.7 -1.4
v -0.7 1.7 -1.4
v -0.5 1.7 -1.4
v -0.7 1.7 -1.5
v -0.6 1.7 -1.5
v -0.6 1.7 -1.6
v -0.5 1.7 -1.6
v -0.4 1.7 -1.6
v -0.8 1.7 -1.7
v -0.7 1.7 -1.7
v -0.5 1.7 -1.7
v -0.4 1.7 -1.7
v -0.8 1.7 -1.8
v -0.7 1.7 -1.8
v -0.5 1.7 -1.8
v -0.6 1.7 -1.9
v -0.5 1.7 -1.9
v -0.4 1.7 -1.9
v -0.7 1.7 -2
v -0.6 1.7 -2
v -0.7 1.8 -1.5
v -0.6 1.8 -1.5
v -0.6 1.8 -1.6
v -0.5 1.8 -1.6
v -0.7 1.8 -1.8
v -0.5 1.8 -1.8

# faces
f 4/2/1 2/2/1 1/2/1
f 5/3/1 3/3/1 2/3/1
f 5/2/1 2/2/1 4/2/1
f 6/3/1 3/3/1 5/3/1
f 9/2/1 8/2/1 7/2/1
f 13/2/1 9/2/1 7/2/1
f 13/2/1 10/2/1 9/2/1
f 13/2/1 11/2/1 10/2/1
f 14/3/1 12/3/1 11/3/1
f 14/2/1 11/2/1 13/2/1
f 15/3/1 12/3/1 14/3/1
f 20/2/1 17/2/1 16/2/1
f 21/2/1 17/2/1 20/2/1
f 23/3/1 19/3/1 18/3/1
f 24/3/1 19/3/1 23/3/1
f 25/3/1 19/3/1 24/3/1
f 28/3/1 23/3/1 22/3/1
f 28/3/1 24/3/1 23/3/1
f 29/3/1 24/3/1 28/3/1
f 30/2/1 27/2/1 26/2/1
f 30/2/1 28/2/1 27/2/1
f 31/2/1 28/2/1 30/2/1
f 32/3/2 33/3/2 36/3/2
f 36/3/2 33/3/2 37/3/2
f 34/2/2 35/2/2 38/2/2
f 38/2/2 35/2/2 39/2/2
f 40/3/2 41/3/2 44/3/2
f 44/3/2 41/3/2 45/3/2
f 42/1/2 43/1/2 46/1/2
f 46/1/2 43/1/2 47/1/2
f 48/2/2 49/2/2 50/2/2
f 47/2/2 48/2/2 50/2/2
f 50/2/2 49/2/2 51/2/2
f 52/1/2 53/1/2 56/1/2
f 56/1/2 53/1/2 57/1/2
f 54/3/2 55/3/2 59/3/2
f 59/3/2 55/3/2 60/3/2
f 57/1/2 58/1/2 61/1/2
f 58/2/2 59/2/2 62/2/2
f 61/1/2 58/1/2 62/1/2
f 62/2/2 59/2/2 63/2/2
f 64/1/2 65/1/2 67/1/2
f 65/2/2 66/2/2 68/2/2
f 67/1/2 65/1/2 68/1/2
f 68/2/2 66/2/2 69/2/2
f 72/2/3 71/2/3 70/2/3
f 73/2/3 71/2/3 72/2/3
f 74/1/3 73/1/3 72/1/3
f 75/1/3 73/1/3 74/1/3
f 78/2/3 77/2/3 76/2/3
f 79/2/3 77/2/3 78/2/3
f 80/2/3 77/2/3 79/2/3
f 81/1/3 80/1/3 79/1/3
f 82/1/3 80/1/3 81/1/3
f 83/1/3 80/1/3 82/1/3
f 86/2/3 85/2/3 84/2/3
f 87/2/3 85/2/3 86/2/3
f 90/2/3 89/2/3 88/2/3
f 91/2/3 89/2/3 90/2/3
f 95/2/3 93/2/3 92/2/3
f 96/2/3 93/2/3 95/2/3
f 98/1/3 95/1/3 94/1/3
f 99/1/3 95/1/3 98/1/3
f 100/1/3 98/1/3 97/1/3
f 101/1/3 98/1/3 100/1/3
f 102/3/4 103/3/4 104/3/4
f 104/3/4 103/3/4 105/3/4
f 105/2/4 106/2/4 107/2/4
f 107/2/4 106/2/4 108/2/4
f 109/3/4 110/3/4 111/3/4
f 111/3/4 110/3/4 112/3/4
f 113/3/4 114/3/4 115/3/4
f 115/3/4 114/3/4 116/3/4
f 115/2/4 116/2/4 118/2/4
f 118/2/4 116/2/4 119/2/4
f 117/2/4 118/2/4 120/2/4
f 120/2/4 118/2/4 121/2/4
f 122/3/4 123/3/4 124/3/4
f 124/3/4 123/3/4 125/3/4
f 126/3/4 127/3/4 128/3/4
f 128/3/4 127/3/4 129/3/4
f 130/3/4 131/3/4 132/3/4
f 132/3/4 131/3/4 133/3/4
f 138/2/5 135/2/5 134/2/5
f 139/1/5 136/1/5 135/1/5
f 139/2/5 135/2/5 138/2/5
f 140/1/5 136/1/5 139/1/5
f 142/2/5 138/2/5 137/2/5
f 142/2/5 139/2/5 138/2/5
f 142/2/5 140/2/5 139/2/5
f 143/2/5 142/2/5 141/2/5
f 144/2/5 140/2/5 142/2/5
f 144/2/5 142/2/5 143/2/5
f 145/1/5 136/1/5 140/1/5
f 145/2/5 140/2/5 144/2/5
f 146/1/5 136/1/5 145/1/5
f 148/2/5 145/2/5 144/2/5
f 148/1/5 147/1/5 146/1/5
f 148/2/5 146/2/5 145/2/5
f 149/1/5 147/1/5 148/1/5
f 150/3/5 144/3/5 143/3/5
f 150/2/5 148/2/5 144/2/5
f 150/2/5 149/2/5 148/2/5
f 151/2/5 149/2/5 150/2/5
f 152/3/5 150/3/5 143/3/5
f 152/3/5 151/3/5 150/3/5
f 153/2/5 149/2/5 151/2/5
f 153/3/5 151/3/5 152/3/5
f 154/2/5 149/2/5 153/2/5
f 155/2/5 149/2/5 154/2/5
f 156/3/5 154/3/5 153/3/5
f 157/3/5 154/3/5 156/3/5
f 158/3/5 156/3/5 153/3/5
f 159/3/5 156/3/5 158/3/5
f 160/2/6 161/2/6 163/2/6
f 161/1/6 162/1/6 164/1/6
f 163/2/6 161/2/6 164/2/6
f 164/1/6 162/1/6 165/1/6
f 166/2/6 167/2/6 168/2/6
f 168/2/6 167/2/6 169/2/6
f 165/1/6 162/1/6 170/1/6
f 170/1/6 162/1/6 171/1/6
f 168/3/6 169/3/6 173/3/6
f 171/1/6 172/1/6 174/1/6
f 174/1/6 172/1/6 175/1/6
f 168/3/6 173/3/6 176/3/6
f 168/3/6 176/3/6 178/3/6
f 176/3/6 177/3/6 178/3/6
f 178/3/6 177/3/6 179/3/6
f 174/2/6 175/2/6 182/2/6
f 182/2/6 175/2/6 183/2/6
f 180/3/6 181/3/6 185/3/6
f 181/3/6 182/3/6 185/3/6
f 185/3/6 182/3/6 186/3/6
f 186/3/6 182/3/6 187/3/6
f 184/3/6 185/3/6 188/3/6
f 185/3/6 186/3/6 188/3/6
f 188/3/6 186/3/6 189/3/6
f 190/2/6 191/2/6 193/2/6
f 191/1/6 192/1/6 193/1/6
f 193/1/6 192/1/6 194/1/6
f 194/1/6 192/1/6 195/1/6
f 195/1/6 192/1/6 196/1/6
f 190/2/6 193/2/6 198/2/6
f 198/2/6 193/2/6 199/2/6
f 196/1/6 197/1/6 200/1/6
f 200/1/6 197/1/6 201/1/6
f 198/3/6 199/3/6 202/3/6
f 202/3/6 199/3/6 203/3/6
f 200/2/6 201/2/6 204/2/6
f 203/3/6 204/3/6 205/3/6
f 204/2/6 201/2/6 206/2/6
f 205/3/6 204/3/6 206/3/6
f 206/2/6 201/2/6 207/2/6
f 203/3/6 205/3/6 208/3/6
f 208/3/6 205/3/6 209/3/6
f 210/2/6 211/2/6 212/2/6
f 210/2/6 212/2/6 214/2/6
f 212/2/6 213/2/6 214/2/6
f 214/2/6 213/2/6 215/2/6
